<svg xmlns="http://www.w3.org/2000/svg" viewBox="0 0 1280 720" role="img" aria-labelledby="t d"><title id="t">Magnanimous AI motion character</title><desc id="d">Friendly white and silver futuristic robot with cyan digital face in a neon city.</desc><defs><linearGradient id="sky" x1="0" y1="0" x2="0" y2="1"><stop stop-color="#07132d"/><stop offset=".55" stop-color="#162b58"/><stop offset="1" stop-color="#2b174b"/></linearGradient><linearGradient id="shell" x1="0" y1="0" x2="1" y2="1"><stop stop-color="#f7fbff"/><stop offset=".6" stop-color="#bfcbe0"/><stop offset="1" stop-color="#7b8ca8"/></linearGradient><filter id="glow"><feGaussianBlur stdDeviation="8" result="b"/><feMerge><feMergeNode in="b"/><feMergeNode in="SourceGraphic"/></feMerge></filter></defs><rect width="1280" height="720" fill="url(#sky)"/><g opacity=".9"><path d="M0 610V330h80v280zm90 0V410h95v200zm110 0V270h115v340zm935 0V300h145v310zm-130 0V390h105v220zm-150 0V235h135v375z" fill="#10284b"/><g fill="#2ce8ff" opacity=".7"><rect x="22" y="365" width="8" height="140"/><rect x="128" y="448" width="9" height="105"/><rect x="250" y="315" width="10" height="174"/><rect x="900" y="280" width="11" height="210"/><rect x="1050" y="425" width="9" height="125"/><rect x="1205" y="345" width="10" height="165"/></g><g fill="#ff53df" opacity=".65"><rect x="48" y="395" width="13" height="75"/><rect x="285" y="350" width="12" height="80"/><rect x="930" y="330" width="14" height="90"/><rect x="1170" y="385" width="12" height="90"/></g></g><ellipse cx="640" cy="645" rx="245" ry="34" fill="#1fe8ff" opacity=".12" filter="url(#glow)"/><g transform="translate(0 5)"><path d="M500 485c25-72 68-110 140-110s115 38 140 110l-30 140H530z" fill="url(#shell)" stroke="#17263c" stroke-width="14"/><path d="M565 465h150l-18 130H583z" fill="#17263c"/><path d="M593 500h94" stroke="#28e8ff" stroke-width="8" stroke-linecap="round" filter="url(#glow)"/><circle cx="640" cy="535" r="23" fill="#28e8ff" opacity=".85" filter="url(#glow)"/><rect x="540" y="180" width="200" height="195" rx="80" fill="url(#shell)" stroke="#17263c" stroke-width="14"/><rect x="566" y="205" width="148" height="140" rx="48" fill="#07111f" stroke="#20304c" stroke-width="8"/><path d="M595 255q20-18 40 0M645 255q20-18 40 0" fill="none" stroke="#38efff" stroke-width="9" stroke-linecap="round" filter="url(#glow)"/><path d="M610 300q30 24 60 0" fill="none" stroke="#38efff" stroke-width="8" stroke-linecap="round" filter="url(#glow)"/><path d="M548 225l-28 18v70l28 20M732 225l28 18v70l-28 20" fill="none" stroke="#9baaca" stroke-width="20" stroke-linecap="round"/><path d="M530 470l-85 40-45 92" fill="none" stroke="url(#shell)" stroke-width="44" stroke-linecap="round"/><path d="M750 470l85 40 45 92" fill="none" stroke="url(#shell)" stroke-width="44" stroke-linecap="round"/><path d="M460 505l-18 18M820 505l18 18" stroke="#2ce8ff" stroke-width="7" filter="url(#glow)"/></g><text x="640" y="95" text-anchor="middle" fill="#eafbff" font-family="Arial,sans-serif" font-weight="800" font-size="54" letter-spacing="7">MAGNANIMOUS AI</text><text x="640" y="140" text-anchor="middle" fill="#6af3ff" font-family="Arial,sans-serif" font-weight="700" font-size="22" letter-spacing="4">MOTION PICTURE CHARACTER</text></svg>